<svg xmlns="http://www.w3.org/2000/svg" xmlns:xlink="http://www.w3.org/1999/xlink" width="1512" zoomAndPan="magnify" viewBox="0 0 1134 567.000005" height="756" preserveAspectRatio="xMidYMid meet" version="1.0"><defs><g/><clipPath id="2dd5f25f55"><path d="M 36.984375 58 L 285.542969 58 L 285.542969 515 L 36.984375 515 Z M 36.984375 58 " clip-rule="nonzero"/></clipPath></defs><path fill="#000000" d="M 168.574219 212.039062 C 164.730469 215.878906 157.796875 215.878906 153.953125 212.039062 L 151.8125 209.902344 L 141.472656 220.222656 L 143.617188 222.363281 C 148.332031 227.074219 154.597656 229.664062 161.261719 229.664062 C 167.929688 229.664062 174.203125 227.074219 178.910156 222.363281 L 181.054688 220.222656 L 170.714844 209.902344 Z M 168.574219 212.039062 " fill-opacity="1" fill-rule="nonzero"/><g clip-path="url(#2dd5f25f55)"><path fill="#000000" d="M 285.542969 149.351562 C 285.542969 136.371094 272.386719 125.199219 248.203125 117.257812 C 259.570312 105.941406 267.320312 91.242188 269.980469 75.269531 L 272.824219 58.277344 L 248.214844 66.472656 C 238.710938 69.632812 230.121094 74.632812 222.6875 80.949219 C 218.511719 69.53125 207.714844 61.738281 195.316406 61.738281 L 127.21875 61.738281 C 113.773438 61.738281 102.105469 70.835938 98.851562 83.863281 L 91.667969 112.546875 C 59.921875 119.617188 36.984375 131.960938 36.984375 149.351562 C 36.984375 162.808594 50.601562 174 76.234375 182.019531 C 75.101562 184.484375 73.800781 186.902344 72.25 189.222656 C 68.308594 195.128906 66.226562 202 66.226562 209.097656 C 66.226562 223.75 75.09375 236.796875 88.53125 242.265625 C 89.394531 248.332031 91.863281 253.957031 95.394531 258.867188 C 79.136719 265.15625 64.441406 275.273438 52.816406 288.816406 C 42.613281 300.726562 36.984375 315.914062 36.984375 331.582031 C 36.984375 347.6875 42.882812 363.195312 53.601562 375.234375 L 91.292969 417.585938 C 91.789062 418.148438 92.40625 418.574219 92.945312 419.082031 L 71.730469 514.40625 L 144.910156 514.40625 L 161.261719 454.542969 L 177.609375 514.40625 L 250.789062 514.40625 L 231.5625 427.992188 C 246.898438 416.761719 256.300781 398.707031 256.300781 379.539062 L 256.300781 318.445312 C 256.300781 295.878906 244.875 275.820312 227.25 263.964844 C 235.296875 256.050781 240.386719 245.589844 241.460938 234.25 C 250.644531 229.183594 256.300781 219.648438 256.300781 209.089844 C 256.300781 201.992188 254.21875 195.117188 250.101562 188.953125 C 248.617188 186.734375 247.359375 184.40625 246.265625 182.011719 C 271.917969 174.007812 285.542969 162.808594 285.542969 149.351562 Z M 212.4375 178.558594 L 219.75 178.558594 C 223.777344 178.558594 227.058594 181.835938 227.058594 185.859375 C 227.058594 189.882812 223.777344 193.160156 219.75 193.160156 L 212.4375 193.160156 Z M 219.75 163.953125 L 211.09375 163.953125 C 208.066406 155.476562 200.023438 149.351562 190.507812 149.351562 L 180.308594 149.351562 C 164.507812 149.351562 149.214844 144.730469 136.070312 135.976562 L 131.085938 132.65625 L 116.507812 147.214844 C 112.371094 151.351562 110.089844 156.851562 110.089844 162.707031 L 110.089844 163.953125 L 102.777344 163.953125 C 100.089844 163.953125 97.542969 164.511719 95.160156 165.394531 C 95.25 163.992188 95.46875 162.605469 95.46875 161.179688 C 95.46875 150.410156 99.027344 139.738281 105.496094 131.128906 L 111.015625 123.785156 C 125.601562 121.550781 142.429688 120.148438 161.261719 120.148438 C 179.058594 120.148438 196.046875 121.460938 211.5625 123.851562 L 217.023438 131.128906 C 223.5 139.746094 227.058594 150.417969 227.058594 161.179688 C 227.058594 162.597656 227.277344 163.992188 227.375 165.394531 C 224.992188 164.511719 222.4375 163.953125 219.75 163.953125 Z M 211.605469 271.921875 L 205.566406 368.386719 L 190.972656 368.386719 L 197.269531 267.828125 C 202.34375 268.507812 207.144531 269.90625 211.605469 271.921875 Z M 102.222656 407.875 L 92.179688 396.597656 L 111.191406 377.605469 L 121.523438 389.398438 C 123.578125 391.742188 124.710938 394.75 124.710938 397.859375 L 124.710938 399.339844 C 124.710938 406.429688 118.933594 412.191406 111.84375 412.191406 C 108.167969 412.191406 104.65625 410.621094 102.222656 407.875 Z M 125.183594 266.644531 L 131.554688 368.386719 L 122.546875 368.386719 L 116.53125 361.515625 L 110.753906 269.238281 C 115.46875 268.015625 120.28125 267.113281 125.183594 266.644531 Z M 143.609375 326.957031 L 161.261719 318.140625 L 178.917969 326.957031 L 178.28125 337.121094 L 161.261719 345.621094 L 144.246094 337.121094 Z M 182.492188 269.894531 L 179.914062 311.121094 L 161.261719 301.8125 L 142.613281 311.121094 L 140.035156 269.894531 L 161.261719 291.097656 Z M 100.753906 343.511719 L 95.980469 338.054688 C 94.679688 336.566406 93.238281 335.238281 91.753906 333.976562 L 99.757812 327.578125 Z M 146.195312 368.386719 L 145.296875 353.972656 L 161.261719 361.945312 L 177.230469 353.972656 L 176.332031 368.386719 Z M 179.136719 238.191406 L 175.886719 240.359375 L 175.886719 255.847656 L 161.261719 270.449219 L 146.640625 255.847656 L 146.640625 240.359375 L 143.390625 238.191406 C 131.691406 230.410156 124.710938 217.375 124.710938 203.34375 L 124.710938 162.707031 C 124.710938 160.757812 125.46875 158.917969 126.851562 157.539062 L 133.089844 151.308594 C 147.433594 159.597656 163.640625 163.953125 180.308594 163.953125 L 190.507812 163.953125 C 194.535156 163.953125 197.816406 167.234375 197.816406 171.257812 L 197.816406 203.34375 C 197.816406 217.375 190.835938 230.410156 179.136719 238.191406 Z M 110.089844 193.160156 L 102.777344 193.160156 C 98.75 193.160156 95.46875 189.882812 95.46875 185.859375 C 95.46875 181.835938 98.75 178.558594 102.777344 178.558594 L 110.089844 178.558594 Z M 252.84375 80.328125 L 253.949219 79.964844 C 250.152344 93.003906 242.113281 104.546875 231.167969 112.703125 C 226.753906 111.703125 222.277344 110.746094 217.546875 109.949219 C 225.078125 96.011719 237.617188 85.394531 252.84375 80.328125 Z M 113.027344 87.402344 C 114.660156 80.890625 120.492188 76.34375 127.210938 76.34375 L 195.308594 76.34375 C 202.027344 76.34375 207.863281 80.890625 209.492188 87.402344 L 210.984375 93.347656 C 207.613281 97.820312 204.734375 102.675781 202.378906 107.867188 C 189.328125 106.371094 175.527344 105.546875 161.261719 105.546875 C 142.832031 105.546875 124.367188 106.917969 107.488281 109.5625 Z M 51.605469 149.351562 C 51.605469 142.539062 65.640625 133.976562 90.144531 127.878906 C 84.136719 137.898438 80.847656 149.492188 80.847656 161.179688 C 80.847656 163.488281 80.65625 165.773438 80.34375 168.027344 C 60.714844 161.808594 51.605469 154.230469 51.605469 149.351562 Z M 102.777344 236.964844 L 102.777344 231.707031 L 95.378906 229.242188 C 86.6875 226.351562 80.847656 218.253906 80.847656 209.097656 C 80.847656 205.074219 82.007812 201.175781 84.304688 197.554688 C 88.199219 203.671875 95 207.761719 102.777344 207.761719 L 110.34375 207.761719 C 111.585938 223.648438 119.386719 238.242188 132.019531 248.003906 L 132.019531 251.582031 C 124.789062 251.707031 117.671875 252.621094 110.726562 254.160156 C 105.78125 249.808594 102.777344 243.644531 102.777344 236.964844 Z M 51.605469 331.582031 C 51.605469 319.394531 55.984375 307.582031 63.921875 298.324219 C 72.9375 287.824219 84.070312 279.667969 96.410156 274.179688 L 98.640625 309.773438 L 77.878906 326.359375 C 74.136719 325.214844 70.21875 324.578125 66.226562 324.578125 L 66.226562 339.179688 C 73.40625 339.179688 80.238281 342.277344 84.96875 347.679688 L 101.542969 366.597656 L 82.449219 385.667969 L 64.527344 365.53125 C 56.195312 356.164062 51.605469 344.109375 51.605469 331.582031 Z M 188.78125 499.804688 L 169.898438 430.648438 L 179.160156 426.027344 L 172.617188 412.964844 L 161.261719 418.632812 L 149.910156 412.964844 L 143.367188 426.027344 L 152.628906 430.648438 L 133.746094 499.804688 L 89.957031 499.804688 L 106.332031 426.210938 C 108.128906 426.574219 109.972656 426.792969 111.835938 426.792969 C 126.992188 426.792969 139.324219 414.476562 139.324219 399.339844 L 139.324219 397.859375 C 139.324219 392.535156 137.714844 387.402344 134.859375 382.988281 L 206.566406 382.988281 L 232.558594 499.804688 Z M 227.996094 411.964844 L 223.171875 390.289062 L 240.320312 390.289062 C 238.304688 398.5 234.027344 406.023438 227.996094 411.964844 Z M 241.679688 318.445312 L 241.679688 375.6875 L 219.925781 375.6875 L 219.800781 375.117188 L 225.671875 281.3125 C 235.570312 290.664062 241.679688 303.886719 241.679688 318.445312 Z M 233.84375 221.765625 L 227.058594 225.152344 L 227.058594 229.664062 C 227.058594 240.46875 221.863281 250.496094 213.160156 256.808594 C 208.285156 255.027344 203.144531 253.734375 197.773438 253.136719 L 190.507812 252.335938 L 190.507812 248.003906 C 203.140625 238.242188 210.9375 223.648438 212.183594 207.761719 L 219.75 207.761719 C 227.535156 207.761719 234.339844 203.65625 238.230469 197.539062 C 240.480469 200.992188 241.679688 204.980469 241.679688 209.097656 C 241.679688 214.492188 238.675781 219.355469 233.84375 221.765625 Z M 242.183594 168.035156 C 241.871094 165.773438 241.679688 163.488281 241.679688 161.179688 C 241.679688 149.5 238.398438 137.925781 232.402344 127.917969 C 258.800781 134.507812 270.921875 143.597656 270.921875 149.351562 C 270.921875 154.230469 261.8125 161.808594 242.183594 168.035156 Z M 242.183594 168.035156 " fill-opacity="1" fill-rule="nonzero"/></g><g fill="#000000" fill-opacity="1"><g transform="translate(288.83834, 320.150984)"><g><path d="M 40.46875 -53.40625 C 37.46875 -54.976562 35.519531 -55.800781 34.625 -55.875 C 33.726562 -55.945312 32.117188 -55.457031 29.796875 -54.40625 C 25.066406 -52.457031 21.726562 -50.054688 19.78125 -47.203125 C 17.832031 -44.359375 16.554688 -40.3125 15.953125 -35.0625 C 15.359375 -29.820312 16.632812 -25.476562 19.78125 -22.03125 C 22.9375 -18.582031 27.210938 -16.785156 32.609375 -16.640625 C 35.753906 -16.640625 38.523438 -17.238281 40.921875 -18.4375 C 43.316406 -19.632812 45.710938 -21.507812 48.109375 -24.0625 C 50.515625 -26.757812 52.128906 -29.457031 52.953125 -32.15625 C 53.773438 -34.851562 53.695312 -37.210938 52.71875 -39.234375 C 49.570312 -46.128906 45.488281 -50.851562 40.46875 -53.40625 Z M 3.375 -32.9375 C 3.375 -41.1875 5.617188 -48.34375 10.109375 -54.40625 C 14.609375 -60.476562 20.71875 -64.710938 28.4375 -67.109375 C 31.0625 -67.941406 33.570312 -68.171875 35.96875 -67.796875 C 38.375 -67.421875 41.335938 -66.40625 44.859375 -64.75 C 50.773438 -62.050781 55.679688 -57.851562 59.578125 -52.15625 C 63.472656 -46.46875 65.460938 -40.695312 65.546875 -34.84375 C 65.460938 -29 63.097656 -23.15625 58.453125 -17.3125 C 53.804688 -11.46875 48.265625 -7.492188 41.828125 -5.390625 C 35.378906 -3.441406 29.15625 -3.441406 23.15625 -5.390625 C 17.164062 -7.335938 12.367188 -10.785156 8.765625 -15.734375 C 5.171875 -20.679688 3.375 -26.414062 3.375 -32.9375 Z M 3.375 -32.9375 "/></g></g></g><g fill="#000000" fill-opacity="1"><g transform="translate(357.751142, 320.150984)"><g><path d="M 51.046875 1.46875 C 51.046875 5.28125 48.945312 7.1875 44.75 7.1875 C 43.46875 6.894531 41.328125 5.359375 38.328125 2.578125 C 35.335938 -0.191406 31.476562 -3.972656 26.75 -8.765625 C 22.03125 -13.566406 19.597656 -16.078125 19.453125 -16.296875 L 19.453125 -10.34375 C 19.453125 -5.769531 18.328125 -2.65625 16.078125 -1 C 13.828125 0.644531 11.425781 0.078125 8.875 -2.703125 C 7.976562 -3.597656 7.378906 -5.546875 7.078125 -8.546875 C 6.785156 -11.546875 6.453125 -20.765625 6.078125 -36.203125 C 5.617188 -51.640625 4.976562 -61.679688 4.15625 -66.328125 C 3.40625 -70.972656 3.179688 -74.046875 3.484375 -75.546875 C 3.785156 -77.046875 4.6875 -78.128906 6.1875 -78.796875 C 7.6875 -79.472656 9.144531 -79.660156 10.5625 -79.359375 C 11.988281 -79.066406 13.148438 -78.394531 14.046875 -77.34375 C 14.953125 -76.289062 15.851562 -72.84375 16.75 -67 C 17.800781 -61.15625 18.328125 -55.984375 18.328125 -51.484375 L 18.328125 -42.5 C 30.546875 -55.382812 37.585938 -62.46875 39.453125 -63.75 C 40.054688 -63.75 41.179688 -63.296875 42.828125 -62.390625 C 44.484375 -61.492188 45.5 -60.707031 45.875 -60.03125 C 46.988281 -58.382812 46.867188 -56.4375 45.515625 -54.1875 C 44.171875 -51.9375 40.765625 -47.960938 35.296875 -42.265625 L 23.953125 -30.359375 L 37.546875 -16.296875 C 43.242188 -10.222656 46.914062 -6.140625 48.5625 -4.046875 C 50.21875 -1.953125 51.046875 -0.113281 51.046875 1.46875 Z M 51.046875 1.46875 "/></g></g></g><g fill="#000000" fill-opacity="1"><g transform="translate(412.1619, 320.150984)"><g><path d="M 13.59375 -46.640625 C 13.820312 -47.617188 13.9375 -50.582031 13.9375 -55.53125 C 13.9375 -60.476562 14.535156 -63.625 15.734375 -64.96875 C 16.929688 -66.320312 18.65625 -67 20.90625 -67 C 23.15625 -67 24.726562 -66.023438 25.625 -64.078125 C 26.53125 -62.128906 27.019531 -58.867188 27.09375 -54.296875 L 27.09375 -46.3125 L 33.5 -46.3125 C 36.945312 -46.3125 39.34375 -45.863281 40.6875 -44.96875 C 42.039062 -44.070312 42.679688 -42.5 42.609375 -40.25 C 42.535156 -38 41.894531 -36.421875 40.6875 -35.515625 C 39.488281 -34.617188 37.164062 -34.207031 33.71875 -34.28125 C 30.28125 -34.363281 28.332031 -34.175781 27.875 -33.71875 C 27.425781 -33.269531 27.875 -28.8125 29.21875 -20.34375 C 30.570312 -11.875 31.625 -7.300781 32.375 -6.625 C 33.125 -5.957031 34.773438 -6.5625 37.328125 -8.4375 C 41.441406 -11.65625 44.703125 -12.03125 47.109375 -9.5625 C 48.523438 -8.132812 49.082031 -6.367188 48.78125 -4.265625 C 48.488281 -2.171875 47.367188 -0.300781 45.421875 1.34375 C 36.648438 8.613281 29.304688 8.691406 23.390625 1.578125 C 21.515625 -0.523438 20.050781 -3.523438 19 -7.421875 C 17.945312 -11.316406 17.046875 -16.1875 16.296875 -22.03125 C 15.628906 -27.875 15.066406 -31.019531 14.609375 -31.46875 C 14.160156 -31.925781 12.960938 -32.15625 11.015625 -32.15625 C 9.066406 -32.15625 7.71875 -32.304688 6.96875 -32.609375 C 6.21875 -32.984375 5.429688 -33.726562 4.609375 -34.84375 C 2.960938 -37.25 2.925781 -39.570312 4.5 -41.8125 C 6.070312 -44.0625 8.503906 -45.1875 11.796875 -45.1875 C 12.773438 -45.1875 13.375 -45.671875 13.59375 -46.640625 Z M 13.59375 -46.640625 "/></g></g></g><g fill="#000000" fill-opacity="1"><g transform="translate(464.436699, 320.150984)"><g><path d="M 28.109375 -36.53125 C 25.929688 -38.707031 23.71875 -38.96875 21.46875 -37.3125 C 19.21875 -35.664062 17.414062 -32.367188 16.0625 -27.421875 C 14.71875 -22.484375 15.019531 -17.914062 16.96875 -13.71875 C 18.925781 -9.519531 21.515625 -7.832031 24.734375 -8.65625 C 26.753906 -9.175781 28.210938 -9.882812 29.109375 -10.78125 C 30.015625 -11.6875 30.84375 -13.488281 31.59375 -16.1875 C 32.34375 -18.882812 32.34375 -22.554688 31.59375 -27.203125 C 30.84375 -31.847656 29.679688 -34.957031 28.109375 -36.53125 Z M 3.484375 -24.953125 C 3.785156 -30.804688 5.285156 -36.128906 7.984375 -40.921875 C 10.679688 -45.710938 14.164062 -48.96875 18.4375 -50.6875 C 22.707031 -52.414062 28.96875 -51.035156 37.21875 -46.546875 C 41.5625 -44.140625 44.332031 -42.113281 45.53125 -40.46875 C 46.726562 -38.820312 46.800781 -36.945312 45.75 -34.84375 C 44.707031 -32.75 44.257812 -28.703125 44.40625 -22.703125 C 44.851562 -8.460938 39.796875 0.191406 29.234375 3.265625 C 21.285156 5.585938 14.460938 3.488281 8.765625 -3.03125 C 6.367188 -5.800781 4.796875 -8.6875 4.046875 -11.6875 C 3.367188 -14.6875 3.179688 -19.109375 3.484375 -24.953125 Z M 3.484375 -24.953125 "/></g></g></g><g fill="#000000" fill-opacity="1"><g transform="translate(514.350683, 320.150984)"><g><path d="M 35.75 -38.671875 C 34.40625 -38.671875 32.304688 -36.945312 29.453125 -33.5 C 26.609375 -30.050781 24.132812 -26.453125 22.03125 -22.703125 C 19.9375 -18.960938 19.128906 -16.640625 19.609375 -15.734375 C 20.097656 -14.835938 21.765625 -13.734375 24.609375 -12.421875 C 27.460938 -11.109375 29.898438 -10.265625 31.921875 -9.890625 C 37.023438 -8.835938 40.363281 -10.597656 41.9375 -15.171875 C 43.351562 -19.148438 43.460938 -23.835938 42.265625 -29.234375 C 41.066406 -34.628906 38.894531 -37.773438 35.75 -38.671875 Z M 47.09375 -1.0625 C 45 0.539062 43.273438 1.492188 41.921875 1.796875 C 40.578125 2.097656 37.675781 2.25 33.21875 2.25 C 28.757812 2.25 24.429688 1.273438 20.234375 -0.671875 C 16.035156 -2.617188 13 -3.367188 11.125 -2.921875 C 9.25 -2.472656 7.566406 -2.882812 6.078125 -4.15625 C 5.171875 -4.90625 4.601562 -6.664062 4.375 -9.4375 C 4.15625 -12.21875 3.894531 -20.085938 3.59375 -33.046875 C 3.289062 -46.015625 3.289062 -55.3125 3.59375 -60.9375 C 4.039062 -66.550781 5.015625 -69.882812 6.515625 -70.9375 C 9.066406 -72.8125 11.65625 -72.8125 14.28125 -70.9375 C 15.25 -70.257812 15.804688 -69.019531 15.953125 -67.21875 C 16.109375 -65.425781 16.113281 -60.742188 15.96875 -53.171875 L 15.515625 -36.984375 L 18.328125 -40.578125 C 20.046875 -43.054688 22.140625 -45.191406 24.609375 -46.984375 C 27.085938 -48.785156 29.488281 -49.988281 31.8125 -50.59375 C 36.53125 -51.789062 40.988281 -50.8125 45.1875 -47.65625 C 49.382812 -44.507812 52.457031 -39.9375 54.40625 -33.9375 C 56.351562 -27.945312 56.582031 -21.84375 55.09375 -15.625 C 54.113281 -11.582031 53.0625 -8.546875 51.9375 -6.515625 C 50.8125 -4.492188 49.195312 -2.675781 47.09375 -1.0625 Z M 47.09375 -1.0625 "/></g></g></g><g fill="#000000" fill-opacity="1"><g transform="translate(573.820305, 320.150984)"><g><path d="M 32.15625 -37.09375 C 27.207031 -39.125 23.796875 -39.085938 21.921875 -36.984375 C 20.796875 -35.554688 20.90625 -34.65625 22.25 -34.28125 C 23.601562 -33.914062 26.53125 -33.582031 31.03125 -33.28125 C 35.375 -32.976562 37.25 -33.351562 36.65625 -34.40625 C 36.351562 -35.070312 34.851562 -35.96875 32.15625 -37.09375 Z M 53.625 -30.6875 C 53.625 -28.96875 52.519531 -27.171875 50.3125 -25.296875 C 48.101562 -23.421875 45.722656 -22.257812 43.171875 -21.8125 C 40.617188 -21.363281 35.929688 -21.097656 29.109375 -21.015625 C 22.296875 -20.941406 18.363281 -21.128906 17.3125 -21.578125 C 16.257812 -22.035156 15.734375 -22.113281 15.734375 -21.8125 L 17.09375 -18.328125 C 18.882812 -13.972656 21.054688 -11.535156 23.609375 -11.015625 C 26.160156 -10.566406 30.054688 -11.46875 35.296875 -13.71875 C 40.546875 -15.96875 43.75 -17.203125 44.90625 -17.421875 C 46.070312 -17.648438 47.421875 -17.273438 48.953125 -16.296875 C 50.492188 -15.328125 51.335938 -13.789062 51.484375 -11.6875 C 51.640625 -9.59375 51.039062 -7.945312 49.6875 -6.75 C 48.34375 -5.550781 45.421875 -3.992188 40.921875 -2.078125 C 36.421875 -0.171875 33.269531 0.988281 31.46875 1.40625 C 29.675781 1.820312 27.019531 1.878906 23.5 1.578125 C 19.976562 1.273438 16.789062 0.148438 13.9375 -1.796875 C 11.09375 -3.742188 8.695312 -6.664062 6.75 -10.5625 C 4.800781 -14.457031 3.675781 -18.503906 3.375 -22.703125 C 3.21875 -26.898438 3.773438 -30.535156 5.046875 -33.609375 C 6.328125 -36.679688 8.316406 -39.941406 11.015625 -43.390625 C 13.710938 -46.835938 16.070312 -49.046875 18.09375 -50.015625 C 20.125 -50.992188 23.238281 -51.332031 27.4375 -51.03125 C 31.632812 -50.738281 35.039062 -49.992188 37.65625 -48.796875 C 42.15625 -46.546875 45.941406 -43.695312 49.015625 -40.25 C 52.085938 -36.800781 53.625 -33.613281 53.625 -30.6875 Z M 53.625 -30.6875 "/></g></g></g><g fill="#000000" fill-opacity="1"><g transform="translate(630.816689, 320.150984)"><g><path d="M 15.625 -48.78125 C 16 -48.332031 16.335938 -48.109375 16.640625 -48.109375 C 16.941406 -48.109375 17.09375 -48.1875 17.09375 -48.34375 C 17.238281 -48.488281 17.460938 -49.046875 17.765625 -50.015625 C 18.066406 -50.992188 19.335938 -52.382812 21.578125 -54.1875 C 23.828125 -55.988281 25.816406 -57.113281 27.546875 -57.5625 C 31.296875 -58.457031 35.71875 -58.378906 40.8125 -57.328125 C 45.90625 -56.285156 48.976562 -54.75 50.03125 -52.71875 C 51.601562 -49.800781 51.335938 -47.367188 49.234375 -45.421875 C 47.140625 -43.472656 44.59375 -42.984375 41.59375 -43.953125 C 38.59375 -44.929688 36.039062 -45.304688 33.9375 -45.078125 C 31.84375 -44.859375 30.421875 -44.332031 29.671875 -43.5 C 28.929688 -42.675781 27.660156 -40.46875 25.859375 -36.875 C 24.210938 -33.28125 23.203125 -30.546875 22.828125 -28.671875 C 22.453125 -26.796875 22.222656 -23.160156 22.140625 -17.765625 C 22.066406 -12.367188 21.914062 -8.921875 21.6875 -7.421875 C 21.46875 -5.921875 20.910156 -4.832031 20.015625 -4.15625 C 18.359375 -3.03125 16.707031 -2.539062 15.0625 -2.6875 C 13.414062 -2.84375 12.144531 -3.632812 11.25 -5.0625 C 10.5 -7.226562 9.671875 -12.207031 8.765625 -20 C 7.867188 -27.800781 6.820312 -33.648438 5.625 -37.546875 C 4.425781 -41.441406 3.710938 -44.4375 3.484375 -46.53125 C 3.253906 -48.632812 3.441406 -50.132812 4.046875 -51.03125 C 4.648438 -51.9375 5.738281 -52.613281 7.3125 -53.0625 C 8.882812 -53.507812 10.046875 -53.582031 10.796875 -53.28125 C 11.546875 -52.988281 12.441406 -52.242188 13.484375 -51.046875 C 14.535156 -49.992188 15.25 -49.238281 15.625 -48.78125 Z M 15.625 -48.78125 "/></g></g></g><g fill="#000000" fill-opacity="1"><g transform="translate(685.115012, 320.150984)"><g><path d="M 18.65625 -19.671875 L 18.65625 -34.28125 L 12.703125 -34.28125 C 9.484375 -34.363281 7.125 -34.851562 5.625 -35.75 C 4.125 -36.644531 3.375 -38.140625 3.375 -40.234375 C 3.375 -42.335938 3.972656 -43.800781 5.171875 -44.625 C 6.367188 -45.457031 8.765625 -46.019531 12.359375 -46.3125 L 19.21875 -46.875 L 20.015625 -54.96875 C 21.054688 -65.09375 23.640625 -71.578125 27.765625 -74.421875 C 30.085938 -76.066406 32.75 -76.738281 35.75 -76.4375 C 38.75 -76.144531 42.722656 -74.835938 47.671875 -72.515625 C 52.617188 -70.191406 55.691406 -68.203125 56.890625 -66.546875 C 58.085938 -64.898438 58.160156 -63.023438 57.109375 -60.921875 C 56.054688 -58.828125 54.554688 -57.78125 52.609375 -57.78125 C 50.660156 -57.78125 47.25 -58.828125 42.375 -60.921875 C 37.507812 -63.023438 34.8125 -63.816406 34.28125 -63.296875 C 33.6875 -62.390625 33.128906 -57.179688 32.609375 -47.671875 C 39.046875 -46.765625 42.9375 -46.3125 44.28125 -46.3125 C 45.632812 -46.3125 46.984375 -45.632812 48.328125 -44.28125 C 49.679688 -42.9375 50.320312 -41.253906 50.25 -39.234375 C 50.320312 -37.210938 49.609375 -35.828125 48.109375 -35.078125 C 46.617188 -34.328125 43.734375 -34.023438 39.453125 -34.171875 L 32.046875 -34.40625 C 31.066406 -24.363281 30.953125 -15.554688 31.703125 -7.984375 C 32.453125 -0.410156 32.75 3.972656 32.59375 5.171875 C 32.445312 6.367188 31.773438 7.492188 30.578125 8.546875 C 29.378906 9.597656 28.03125 10.046875 26.53125 9.890625 C 24.957031 9.742188 23.535156 9.070312 22.265625 7.875 C 19.859375 5.695312 18.65625 -3.484375 18.65625 -19.671875 Z M 18.65625 -19.671875 "/></g></g></g><g fill="#000000" fill-opacity="1"><g transform="translate(746.383311, 320.150984)"><g><path d="M 32.15625 -37.09375 C 27.207031 -39.125 23.796875 -39.085938 21.921875 -36.984375 C 20.796875 -35.554688 20.90625 -34.65625 22.25 -34.28125 C 23.601562 -33.914062 26.53125 -33.582031 31.03125 -33.28125 C 35.375 -32.976562 37.25 -33.351562 36.65625 -34.40625 C 36.351562 -35.070312 34.851562 -35.96875 32.15625 -37.09375 Z M 53.625 -30.6875 C 53.625 -28.96875 52.519531 -27.171875 50.3125 -25.296875 C 48.101562 -23.421875 45.722656 -22.257812 43.171875 -21.8125 C 40.617188 -21.363281 35.929688 -21.097656 29.109375 -21.015625 C 22.296875 -20.941406 18.363281 -21.128906 17.3125 -21.578125 C 16.257812 -22.035156 15.734375 -22.113281 15.734375 -21.8125 L 17.09375 -18.328125 C 18.882812 -13.972656 21.054688 -11.535156 23.609375 -11.015625 C 26.160156 -10.566406 30.054688 -11.46875 35.296875 -13.71875 C 40.546875 -15.96875 43.75 -17.203125 44.90625 -17.421875 C 46.070312 -17.648438 47.421875 -17.273438 48.953125 -16.296875 C 50.492188 -15.328125 51.335938 -13.789062 51.484375 -11.6875 C 51.640625 -9.59375 51.039062 -7.945312 49.6875 -6.75 C 48.34375 -5.550781 45.421875 -3.992188 40.921875 -2.078125 C 36.421875 -0.171875 33.269531 0.988281 31.46875 1.40625 C 29.675781 1.820312 27.019531 1.878906 23.5 1.578125 C 19.976562 1.273438 16.789062 0.148438 13.9375 -1.796875 C 11.09375 -3.742188 8.695312 -6.664062 6.75 -10.5625 C 4.800781 -14.457031 3.675781 -18.503906 3.375 -22.703125 C 3.21875 -26.898438 3.773438 -30.535156 5.046875 -33.609375 C 6.328125 -36.679688 8.316406 -39.941406 11.015625 -43.390625 C 13.710938 -46.835938 16.070312 -49.046875 18.09375 -50.015625 C 20.125 -50.992188 23.238281 -51.332031 27.4375 -51.03125 C 31.632812 -50.738281 35.039062 -49.992188 37.65625 -48.796875 C 42.15625 -46.546875 45.941406 -43.695312 49.015625 -40.25 C 52.085938 -36.800781 53.625 -33.613281 53.625 -30.6875 Z M 53.625 -30.6875 "/></g></g></g><g fill="#000000" fill-opacity="1"><g transform="translate(803.379695, 320.150984)"><g><path d="M 27.3125 -41.078125 C 26.34375 -43.066406 25.484375 -44.4375 24.734375 -45.1875 C 23.984375 -45.9375 22.914062 -46.3125 21.53125 -46.3125 C 20.144531 -46.3125 19.078125 -45.601562 18.328125 -44.1875 C 17.203125 -41.863281 17.085938 -40.023438 17.984375 -38.671875 C 18.890625 -37.328125 21.851562 -35.226562 26.875 -32.375 C 31.894531 -29.53125 35.675781 -26.851562 38.21875 -24.34375 C 40.769531 -21.832031 42.492188 -19.078125 43.390625 -16.078125 C 44.296875 -13.078125 44.519531 -10.640625 44.0625 -8.765625 C 43.613281 -6.890625 42.265625 -4.90625 40.015625 -2.8125 C 32.378906 4.757812 23.273438 5.660156 12.703125 -0.109375 C 7.828125 -2.734375 4.863281 -5.316406 3.8125 -7.859375 C 2.769531 -10.410156 3.671875 -12.773438 6.515625 -14.953125 L 9.328125 -16.96875 L 15.84375 -13.15625 C 19.289062 -10.976562 22.0625 -9.738281 24.15625 -9.4375 C 26.257812 -9.144531 28.003906 -9.460938 29.390625 -10.390625 C 30.785156 -11.328125 31.40625 -12.019531 31.25 -12.46875 C 31.101562 -12.925781 30.316406 -13.941406 28.890625 -15.515625 C 27.316406 -17.015625 24.054688 -19.257812 19.109375 -22.25 C 14.160156 -25.25 10.640625 -27.722656 8.546875 -29.671875 C 6.597656 -31.628906 5.394531 -33.113281 4.9375 -34.125 C 4.488281 -35.132812 4.226562 -36.800781 4.15625 -39.125 C 4.15625 -43.320312 5.390625 -47.289062 7.859375 -51.03125 C 10.335938 -54.78125 13.300781 -57.179688 16.75 -58.234375 C 18.550781 -58.835938 20.96875 -58.988281 24 -58.6875 C 27.039062 -58.382812 29.382812 -57.859375 31.03125 -57.109375 C 32.675781 -56.359375 34.582031 -54.035156 36.75 -50.140625 C 38.925781 -46.242188 40.015625 -43.46875 40.015625 -41.8125 C 40.015625 -40.164062 39.226562 -38.671875 37.65625 -37.328125 C 35.9375 -35.972656 34.398438 -35.367188 33.046875 -35.515625 C 31.703125 -35.671875 30.65625 -36.140625 29.90625 -36.921875 C 29.15625 -37.710938 28.289062 -39.097656 27.3125 -41.078125 Z M 27.3125 -41.078125 "/></g></g></g><g fill="#000000" fill-opacity="1"><g transform="translate(851.045322, 320.150984)"><g><path d="M 13.59375 -46.640625 C 13.820312 -47.617188 13.9375 -50.582031 13.9375 -55.53125 C 13.9375 -60.476562 14.535156 -63.625 15.734375 -64.96875 C 16.929688 -66.320312 18.65625 -67 20.90625 -67 C 23.15625 -67 24.726562 -66.023438 25.625 -64.078125 C 26.53125 -62.128906 27.019531 -58.867188 27.09375 -54.296875 L 27.09375 -46.3125 L 33.5 -46.3125 C 36.945312 -46.3125 39.34375 -45.863281 40.6875 -44.96875 C 42.039062 -44.070312 42.679688 -42.5 42.609375 -40.25 C 42.535156 -38 41.894531 -36.421875 40.6875 -35.515625 C 39.488281 -34.617188 37.164062 -34.207031 33.71875 -34.28125 C 30.28125 -34.363281 28.332031 -34.175781 27.875 -33.71875 C 27.425781 -33.269531 27.875 -28.8125 29.21875 -20.34375 C 30.570312 -11.875 31.625 -7.300781 32.375 -6.625 C 33.125 -5.957031 34.773438 -6.5625 37.328125 -8.4375 C 41.441406 -11.65625 44.703125 -12.03125 47.109375 -9.5625 C 48.523438 -8.132812 49.082031 -6.367188 48.78125 -4.265625 C 48.488281 -2.171875 47.367188 -0.300781 45.421875 1.34375 C 36.648438 8.613281 29.304688 8.691406 23.390625 1.578125 C 21.515625 -0.523438 20.050781 -3.523438 19 -7.421875 C 17.945312 -11.316406 17.046875 -16.1875 16.296875 -22.03125 C 15.628906 -27.875 15.066406 -31.019531 14.609375 -31.46875 C 14.160156 -31.925781 12.960938 -32.15625 11.015625 -32.15625 C 9.066406 -32.15625 7.71875 -32.304688 6.96875 -32.609375 C 6.21875 -32.984375 5.429688 -33.726562 4.609375 -34.84375 C 2.960938 -37.25 2.925781 -39.570312 4.5 -41.8125 C 6.070312 -44.0625 8.503906 -45.1875 11.796875 -45.1875 C 12.773438 -45.1875 13.375 -45.671875 13.59375 -46.640625 Z M 13.59375 -46.640625 "/></g></g></g><g fill="#000000" fill-opacity="1"><g transform="translate(903.320099, 320.150984)"><g/></g></g><g fill="#000000" fill-opacity="1"><g transform="translate(945.139956, 320.150984)"><g><path d="M 3.9375 -68.578125 C 4.90625 -69.628906 6.398438 -70.15625 8.421875 -70.15625 C 10.453125 -70.15625 12.066406 -69.59375 13.265625 -68.46875 C 14.460938 -67.34375 15.625 -62.695312 16.75 -54.53125 C 17.800781 -46.351562 18.476562 -35.820312 18.78125 -22.9375 C 19.15625 -10.039062 19.566406 -1.722656 20.015625 2.015625 C 20.460938 5.765625 20.160156 8.351562 19.109375 9.78125 C 18.140625 10.90625 16.601562 11.539062 14.5 11.6875 C 12.40625 11.84375 10.90625 11.394531 10 10.34375 C 8.957031 9.289062 8.0625 4.941406 7.3125 -2.703125 C 6.5625 -10.347656 6.1875 -19.265625 6.1875 -29.453125 C 6.1875 -39.648438 5.585938 -48.382812 4.390625 -55.65625 C 3.179688 -63 3.03125 -67.304688 3.9375 -68.578125 Z M 3.9375 -68.578125 "/></g></g></g><g fill="#000000" fill-opacity="1"><g transform="translate(968.747947, 320.150984)"><g><path d="M 46.203125 -6.96875 C 44.179688 -6.96875 42.644531 -7.941406 41.59375 -9.890625 C 40.539062 -11.835938 39.492188 -15.4375 38.453125 -20.6875 C 36.796875 -29.976562 34.804688 -35.300781 32.484375 -36.65625 C 31.960938 -36.945312 31.441406 -36.90625 30.921875 -36.53125 C 29.046875 -35.03125 26.984375 -27.953125 24.734375 -15.296875 C 23.984375 -11.171875 22.859375 -8.039062 21.359375 -5.90625 C 19.859375 -3.769531 18.265625 -2.847656 16.578125 -3.140625 C 14.890625 -3.441406 13.9375 -3.59375 13.71875 -3.59375 C 12.8125 -3.59375 11.984375 -4.941406 11.234375 -7.640625 C 10.492188 -10.335938 9.671875 -15.472656 8.765625 -23.046875 C 7.867188 -30.617188 6.632812 -36.164062 5.0625 -39.6875 C 2.4375 -45.757812 2.8125 -49.617188 6.1875 -51.265625 C 9.78125 -53.140625 13.039062 -51.53125 15.96875 -46.4375 L 18.546875 -41.828125 L 22.03125 -45.53125 C 23.832031 -47.550781 26.003906 -49.007812 28.546875 -49.90625 C 31.097656 -50.8125 33.425781 -50.925781 35.53125 -50.25 C 38.976562 -49.195312 41.972656 -46.628906 44.515625 -42.546875 C 47.066406 -38.460938 49.015625 -32.972656 50.359375 -26.078125 C 51.710938 -19.179688 52.128906 -14.273438 51.609375 -11.359375 C 51.003906 -8.429688 49.203125 -6.96875 46.203125 -6.96875 Z M 46.203125 -6.96875 "/></g></g></g><g fill="#000000" fill-opacity="1"><g transform="translate(1023.945654, 320.150984)"><g><path d="M 46.203125 -6.96875 C 44.179688 -6.96875 42.644531 -7.941406 41.59375 -9.890625 C 40.539062 -11.835938 39.492188 -15.4375 38.453125 -20.6875 C 36.796875 -29.976562 34.804688 -35.300781 32.484375 -36.65625 C 31.960938 -36.945312 31.441406 -36.90625 30.921875 -36.53125 C 29.046875 -35.03125 26.984375 -27.953125 24.734375 -15.296875 C 23.984375 -11.171875 22.859375 -8.039062 21.359375 -5.90625 C 19.859375 -3.769531 18.265625 -2.847656 16.578125 -3.140625 C 14.890625 -3.441406 13.9375 -3.59375 13.71875 -3.59375 C 12.8125 -3.59375 11.984375 -4.941406 11.234375 -7.640625 C 10.492188 -10.335938 9.671875 -15.472656 8.765625 -23.046875 C 7.867188 -30.617188 6.632812 -36.164062 5.0625 -39.6875 C 2.4375 -45.757812 2.8125 -49.617188 6.1875 -51.265625 C 9.78125 -53.140625 13.039062 -51.53125 15.96875 -46.4375 L 18.546875 -41.828125 L 22.03125 -45.53125 C 23.832031 -47.550781 26.003906 -49.007812 28.546875 -49.90625 C 31.097656 -50.8125 33.425781 -50.925781 35.53125 -50.25 C 38.976562 -49.195312 41.972656 -46.628906 44.515625 -42.546875 C 47.066406 -38.460938 49.015625 -32.972656 50.359375 -26.078125 C 51.710938 -19.179688 52.128906 -14.273438 51.609375 -11.359375 C 51.003906 -8.429688 49.203125 -6.96875 46.203125 -6.96875 Z M 46.203125 -6.96875 "/></g></g></g></svg>